<svg xmlns="http://www.w3.org/2000/svg" xmlns:xlink="http://www.w3.org/1999/xlink" viewBox="0,0,256,256" width="480px" height="480px" fill-rule="nonzero"><g fill="none" fill-rule="nonzero" stroke="none" stroke-width="1" stroke-linecap="butt" stroke-linejoin="miter" stroke-miterlimit="10" stroke-dasharray="" stroke-dashoffset="0" font-family="none" font-weight="none" font-size="none" text-anchor="none" style="mix-blend-mode: normal"><g transform="scale(3.2,3.2)"><path d="M44.5,54.5h9v23h-9z" fill="#f5c276"></path><path d="M53,55v22h-8v-22h8M54,54h-10v24h10v-24z" fill="#c29653"></path><path d="M12.5,55.5v-27.5c0,-7.444 6.056,-13.5 13.5,-13.5h38c7.444,0 13.5,6.056 13.5,13.5v27.5z" fill="#8bb7f0"></path><path d="M64,15c7.168,0 13,5.832 13,13v27h-64v-27c0,-7.168 5.832,-13 13,-13h38M64,14h-38c-7.7,0 -14,6.3 -14,14v28h66v-28c0,-7.7 -6.3,-14 -14,-14z" fill="#4e50b5"></path><path d="M12.5,55.5v-27.795c0,-7.158 6.183,-13.205 13.5,-13.205c7.444,0 13.5,6.056 13.5,13.5v27.5z" fill="#8bb7f0"></path><path d="M26,15c7.168,0 13,5.832 13,13v27h-26v-27.295c0,-6.887 5.953,-12.705 13,-12.705M26,14c-7.7,0 -14,6.3 -14,13.705v28.295h28v-28c0,-7.7 -6.3,-14 -14,-14z" fill="#4e50b5"></path><path d="M50.5,24.5h21v1h-21z" fill="#f78f8f"></path><path d="M72,24h-22v2h22z" fill="#c74343"></path><g><path d="M49,22.5c-1.38071,0 -2.5,1.11929 -2.5,2.5c0,1.38071 1.11929,2.5 2.5,2.5c1.38071,0 2.5,-1.11929 2.5,-2.5c0,-1.38071 -1.11929,-2.5 -2.5,-2.5z" fill="#f78f8f"></path><path d="M49,23c1.103,0 2,0.897 2,2c0,1.103 -0.897,2 -2,2c-1.103,0 -2,-0.897 -2,-2c0,-1.103 0.897,-2 2,-2M49,22c-1.657,0 -3,1.343 -3,3c0,1.657 1.343,3 3,3c1.657,0 3,-1.343 3,-3c0,-1.657 -1.343,-3 -3,-3z" fill="#c74343"></path></g><g><path d="M64.5,24.5h7v11h-7z" fill="#f78f8f"></path><path d="M71,25v10h-6v-10h6M72,24h-8v12h8v-12z" fill="#c74343"></path></g><g><path d="M18.5,30.5h15v1h-15z" fill="#8bb7f0"></path><path d="M34,30h-16v2h16z" fill="#4e50b5"></path></g></g></g></svg>